<svg width="600" height="400" viewBox="0 0 600 400" xmlns="http://www.w3.org/2000/svg">
<rect x="0" y="0" width="600" height="400" opacity="1" fill="#FFFFFF" stroke="none"/>
<line opacity="0.1" stroke="#000000" stroke-width="1" x1="50" y1="349" x2="50" y2="10"/>
<line opacity="0.1" stroke="#000000" stroke-width="1" x1="58" y1="349" x2="58" y2="10"/>
<line opacity="0.1" stroke="#000000" stroke-width="1" x1="67" y1="349" x2="67" y2="10"/>
<line opacity="0.1" stroke="#000000" stroke-width="1" x1="76" y1="349" x2="76" y2="10"/>
<line opacity="0.1" stroke="#000000" stroke-width="1" x1="85" y1="349" x2="85" y2="10"/>
<line opacity="0.1" stroke="#000000" stroke-width="1" x1="94" y1="349" x2="94" y2="10"/>
<line opacity="0.1" stroke="#000000" stroke-width="1" x1="103" y1="349" x2="103" y2="10"/>
<line opacity="0.1" stroke="#000000" stroke-width="1" x1="112" y1="349" x2="112" y2="10"/>
<line opacity="0.1" stroke="#000000" stroke-width="1" x1="121" y1="349" x2="121" y2="10"/>
<line opacity="0.1" stroke="#000000" stroke-width="1" x1="130" y1="349" x2="130" y2="10"/>
<line opacity="0.1" stroke="#000000" stroke-width="1" x1="139" y1="349" x2="139" y2="10"/>
<line opacity="0.1" stroke="#000000" stroke-width="1" x1="148" y1="349" x2="148" y2="10"/>
<line opacity="0.1" stroke="#000000" stroke-width="1" x1="157" y1="349" x2="157" y2="10"/>
<line opacity="0.1" stroke="#000000" stroke-width="1" x1="166" y1="349" x2="166" y2="10"/>
<line opacity="0.1" stroke="#000000" stroke-width="1" x1="175" y1="349" x2="175" y2="10"/>
<line opacity="0.1" stroke="#000000" stroke-width="1" x1="184" y1="349" x2="184" y2="10"/>
<line opacity="0.1" stroke="#000000" stroke-width="1" x1="193" y1="349" x2="193" y2="10"/>
<line opacity="0.1" stroke="#000000" stroke-width="1" x1="202" y1="349" x2="202" y2="10"/>
<line opacity="0.1" stroke="#000000" stroke-width="1" x1="211" y1="349" x2="211" y2="10"/>
<line opacity="0.1" stroke="#000000" stroke-width="1" x1="220" y1="349" x2="220" y2="10"/>
<line opacity="0.1" stroke="#000000" stroke-width="1" x1="229" y1="349" x2="229" y2="10"/>
<line opacity="0.1" stroke="#000000" stroke-width="1" x1="238" y1="349" x2="238" y2="10"/>
<line opacity="0.1" stroke="#000000" stroke-width="1" x1="247" y1="349" x2="247" y2="10"/>
<line opacity="0.1" stroke="#000000" stroke-width="1" x1="256" y1="349" x2="256" y2="10"/>
<line opacity="0.1" stroke="#000000" stroke-width="1" x1="265" y1="349" x2="265" y2="10"/>
<line opacity="0.1" stroke="#000000" stroke-width="1" x1="274" y1="349" x2="274" y2="10"/>
<line opacity="0.1" stroke="#000000" stroke-width="1" x1="283" y1="349" x2="283" y2="10"/>
<line opacity="0.1" stroke="#000000" stroke-width="1" x1="292" y1="349" x2="292" y2="10"/>
<line opacity="0.1" stroke="#000000" stroke-width="1" x1="301" y1="349" x2="301" y2="10"/>
<line opacity="0.1" stroke="#000000" stroke-width="1" x1="310" y1="349" x2="310" y2="10"/>
<line opacity="0.1" stroke="#000000" stroke-width="1" x1="319" y1="349" x2="319" y2="10"/>
<line opacity="0.1" stroke="#000000" stroke-width="1" x1="328" y1="349" x2="328" y2="10"/>
<line opacity="0.1" stroke="#000000" stroke-width="1" x1="337" y1="349" x2="337" y2="10"/>
<line opacity="0.1" stroke="#000000" stroke-width="1" x1="346" y1="349" x2="346" y2="10"/>
<line opacity="0.1" stroke="#000000" stroke-width="1" x1="355" y1="349" x2="355" y2="10"/>
<line opacity="0.1" stroke="#000000" stroke-width="1" x1="364" y1="349" x2="364" y2="10"/>
<line opacity="0.1" stroke="#000000" stroke-width="1" x1="373" y1="349" x2="373" y2="10"/>
<line opacity="0.1" stroke="#000000" stroke-width="1" x1="382" y1="349" x2="382" y2="10"/>
<line opacity="0.1" stroke="#000000" stroke-width="1" x1="391" y1="349" x2="391" y2="10"/>
<line opacity="0.1" stroke="#000000" stroke-width="1" x1="400" y1="349" x2="400" y2="10"/>
<line opacity="0.1" stroke="#000000" stroke-width="1" x1="409" y1="349" x2="409" y2="10"/>
<line opacity="0.1" stroke="#000000" stroke-width="1" x1="418" y1="349" x2="418" y2="10"/>
<line opacity="0.1" stroke="#000000" stroke-width="1" x1="427" y1="349" x2="427" y2="10"/>
<line opacity="0.1" stroke="#000000" stroke-width="1" x1="436" y1="349" x2="436" y2="10"/>
<line opacity="0.1" stroke="#000000" stroke-width="1" x1="445" y1="349" x2="445" y2="10"/>
<line opacity="0.1" stroke="#000000" stroke-width="1" x1="454" y1="349" x2="454" y2="10"/>
<line opacity="0.1" stroke="#000000" stroke-width="1" x1="463" y1="349" x2="463" y2="10"/>
<line opacity="0.1" stroke="#000000" stroke-width="1" x1="472" y1="349" x2="472" y2="10"/>
<line opacity="0.1" stroke="#000000" stroke-width="1" x1="481" y1="349" x2="481" y2="10"/>
<line opacity="0.1" stroke="#000000" stroke-width="1" x1="490" y1="349" x2="490" y2="10"/>
<line opacity="0.1" stroke="#000000" stroke-width="1" x1="499" y1="349" x2="499" y2="10"/>
<line opacity="0.1" stroke="#000000" stroke-width="1" x1="508" y1="349" x2="508" y2="10"/>
<line opacity="0.1" stroke="#000000" stroke-width="1" x1="517" y1="349" x2="517" y2="10"/>
<line opacity="0.1" stroke="#000000" stroke-width="1" x1="526" y1="349" x2="526" y2="10"/>
<line opacity="0.1" stroke="#000000" stroke-width="1" x1="535" y1="349" x2="535" y2="10"/>
<line opacity="0.1" stroke="#000000" stroke-width="1" x1="544" y1="349" x2="544" y2="10"/>
<line opacity="0.1" stroke="#000000" stroke-width="1" x1="553" y1="349" x2="553" y2="10"/>
<line opacity="0.1" stroke="#000000" stroke-width="1" x1="562" y1="349" x2="562" y2="10"/>
<line opacity="0.1" stroke="#000000" stroke-width="1" x1="571" y1="349" x2="571" y2="10"/>
<line opacity="0.1" stroke="#000000" stroke-width="1" x1="580" y1="349" x2="580" y2="10"/>
<line opacity="0.1" stroke="#000000" stroke-width="1" x1="589" y1="349" x2="589" y2="10"/>
<line opacity="0.1" stroke="#000000" stroke-width="1" x1="50" y1="349" x2="589" y2="349"/>
<line opacity="0.1" stroke="#000000" stroke-width="1" x1="50" y1="344" x2="589" y2="344"/>
<line opacity="0.1" stroke="#000000" stroke-width="1" x1="50" y1="338" x2="589" y2="338"/>
<line opacity="0.1" stroke="#000000" stroke-width="1" x1="50" y1="333" x2="589" y2="333"/>
<line opacity="0.1" stroke="#000000" stroke-width="1" x1="50" y1="327" x2="589" y2="327"/>
<line opacity="0.1" stroke="#000000" stroke-width="1" x1="50" y1="321" x2="589" y2="321"/>
<line opacity="0.1" stroke="#000000" stroke-width="1" x1="50" y1="316" x2="589" y2="316"/>
<line opacity="0.1" stroke="#000000" stroke-width="1" x1="50" y1="310" x2="589" y2="310"/>
<line opacity="0.1" stroke="#000000" stroke-width="1" x1="50" y1="304" x2="589" y2="304"/>
<line opacity="0.1" stroke="#000000" stroke-width="1" x1="50" y1="299" x2="589" y2="299"/>
<line opacity="0.1" stroke="#000000" stroke-width="1" x1="50" y1="293" x2="589" y2="293"/>
<line opacity="0.1" stroke="#000000" stroke-width="1" x1="50" y1="287" x2="589" y2="287"/>
<line opacity="0.1" stroke="#000000" stroke-width="1" x1="50" y1="282" x2="589" y2="282"/>
<line opacity="0.1" stroke="#000000" stroke-width="1" x1="50" y1="276" x2="589" y2="276"/>
<line opacity="0.1" stroke="#000000" stroke-width="1" x1="50" y1="270" x2="589" y2="270"/>
<line opacity="0.1" stroke="#000000" stroke-width="1" x1="50" y1="265" x2="589" y2="265"/>
<line opacity="0.1" stroke="#000000" stroke-width="1" x1="50" y1="259" x2="589" y2="259"/>
<line opacity="0.1" stroke="#000000" stroke-width="1" x1="50" y1="253" x2="589" y2="253"/>
<line opacity="0.1" stroke="#000000" stroke-width="1" x1="50" y1="248" x2="589" y2="248"/>
<line opacity="0.1" stroke="#000000" stroke-width="1" x1="50" y1="242" x2="589" y2="242"/>
<line opacity="0.1" stroke="#000000" stroke-width="1" x1="50" y1="236" x2="589" y2="236"/>
<line opacity="0.1" stroke="#000000" stroke-width="1" x1="50" y1="231" x2="589" y2="231"/>
<line opacity="0.1" stroke="#000000" stroke-width="1" x1="50" y1="225" x2="589" y2="225"/>
<line opacity="0.1" stroke="#000000" stroke-width="1" x1="50" y1="220" x2="589" y2="220"/>
<line opacity="0.1" stroke="#000000" stroke-width="1" x1="50" y1="214" x2="589" y2="214"/>
<line opacity="0.1" stroke="#000000" stroke-width="1" x1="50" y1="208" x2="589" y2="208"/>
<line opacity="0.1" stroke="#000000" stroke-width="1" x1="50" y1="203" x2="589" y2="203"/>
<line opacity="0.1" stroke="#000000" stroke-width="1" x1="50" y1="197" x2="589" y2="197"/>
<line opacity="0.1" stroke="#000000" stroke-width="1" x1="50" y1="191" x2="589" y2="191"/>
<line opacity="0.1" stroke="#000000" stroke-width="1" x1="50" y1="186" x2="589" y2="186"/>
<line opacity="0.1" stroke="#000000" stroke-width="1" x1="50" y1="180" x2="589" y2="180"/>
<line opacity="0.1" stroke="#000000" stroke-width="1" x1="50" y1="174" x2="589" y2="174"/>
<line opacity="0.1" stroke="#000000" stroke-width="1" x1="50" y1="169" x2="589" y2="169"/>
<line opacity="0.1" stroke="#000000" stroke-width="1" x1="50" y1="163" x2="589" y2="163"/>
<line opacity="0.1" stroke="#000000" stroke-width="1" x1="50" y1="157" x2="589" y2="157"/>
<line opacity="0.1" stroke="#000000" stroke-width="1" x1="50" y1="152" x2="589" y2="152"/>
<line opacity="0.1" stroke="#000000" stroke-width="1" x1="50" y1="146" x2="589" y2="146"/>
<line opacity="0.1" stroke="#000000" stroke-width="1" x1="50" y1="140" x2="589" y2="140"/>
<line opacity="0.1" stroke="#000000" stroke-width="1" x1="50" y1="135" x2="589" y2="135"/>
<line opacity="0.1" stroke="#000000" stroke-width="1" x1="50" y1="129" x2="589" y2="129"/>
<line opacity="0.1" stroke="#000000" stroke-width="1" x1="50" y1="123" x2="589" y2="123"/>
<line opacity="0.1" stroke="#000000" stroke-width="1" x1="50" y1="118" x2="589" y2="118"/>
<line opacity="0.1" stroke="#000000" stroke-width="1" x1="50" y1="112" x2="589" y2="112"/>
<line opacity="0.1" stroke="#000000" stroke-width="1" x1="50" y1="107" x2="589" y2="107"/>
<line opacity="0.1" stroke="#000000" stroke-width="1" x1="50" y1="101" x2="589" y2="101"/>
<line opacity="0.1" stroke="#000000" stroke-width="1" x1="50" y1="95" x2="589" y2="95"/>
<line opacity="0.1" stroke="#000000" stroke-width="1" x1="50" y1="90" x2="589" y2="90"/>
<line opacity="0.1" stroke="#000000" stroke-width="1" x1="50" y1="84" x2="589" y2="84"/>
<line opacity="0.1" stroke="#000000" stroke-width="1" x1="50" y1="78" x2="589" y2="78"/>
<line opacity="0.1" stroke="#000000" stroke-width="1" x1="50" y1="73" x2="589" y2="73"/>
<line opacity="0.1" stroke="#000000" stroke-width="1" x1="50" y1="67" x2="589" y2="67"/>
<line opacity="0.1" stroke="#000000" stroke-width="1" x1="50" y1="61" x2="589" y2="61"/>
<line opacity="0.1" stroke="#000000" stroke-width="1" x1="50" y1="56" x2="589" y2="56"/>
<line opacity="0.1" stroke="#000000" stroke-width="1" x1="50" y1="50" x2="589" y2="50"/>
<line opacity="0.1" stroke="#000000" stroke-width="1" x1="50" y1="44" x2="589" y2="44"/>
<line opacity="0.1" stroke="#000000" stroke-width="1" x1="50" y1="39" x2="589" y2="39"/>
<line opacity="0.1" stroke="#000000" stroke-width="1" x1="50" y1="33" x2="589" y2="33"/>
<line opacity="0.1" stroke="#000000" stroke-width="1" x1="50" y1="27" x2="589" y2="27"/>
<line opacity="0.1" stroke="#000000" stroke-width="1" x1="50" y1="22" x2="589" y2="22"/>
<line opacity="0.1" stroke="#000000" stroke-width="1" x1="50" y1="16" x2="589" y2="16"/>
<line opacity="0.1" stroke="#000000" stroke-width="1" x1="50" y1="10" x2="589" y2="10"/>
<line opacity="0.2" stroke="#000000" stroke-width="1" x1="50" y1="349" x2="50" y2="10"/>
<line opacity="0.2" stroke="#000000" stroke-width="1" x1="139" y1="349" x2="139" y2="10"/>
<line opacity="0.2" stroke="#000000" stroke-width="1" x1="229" y1="349" x2="229" y2="10"/>
<line opacity="0.2" stroke="#000000" stroke-width="1" x1="319" y1="349" x2="319" y2="10"/>
<line opacity="0.2" stroke="#000000" stroke-width="1" x1="409" y1="349" x2="409" y2="10"/>
<line opacity="0.2" stroke="#000000" stroke-width="1" x1="499" y1="349" x2="499" y2="10"/>
<line opacity="0.2" stroke="#000000" stroke-width="1" x1="589" y1="349" x2="589" y2="10"/>
<line opacity="0.2" stroke="#000000" stroke-width="1" x1="50" y1="349" x2="589" y2="349"/>
<line opacity="0.2" stroke="#000000" stroke-width="1" x1="50" y1="293" x2="589" y2="293"/>
<line opacity="0.2" stroke="#000000" stroke-width="1" x1="50" y1="236" x2="589" y2="236"/>
<line opacity="0.2" stroke="#000000" stroke-width="1" x1="50" y1="180" x2="589" y2="180"/>
<line opacity="0.2" stroke="#000000" stroke-width="1" x1="50" y1="123" x2="589" y2="123"/>
<line opacity="0.2" stroke="#000000" stroke-width="1" x1="50" y1="67" x2="589" y2="67"/>
<line opacity="0.2" stroke="#000000" stroke-width="1" x1="50" y1="10" x2="589" y2="10"/>
<polyline fill="none" opacity="1" stroke="#000000" stroke-width="1" points="49,10 49,349 "/>
<text x="40" y="349" dy="0.5ex" text-anchor="end" font-family="sans-serif" font-size="12.903225806451614" opacity="1" fill="#000000">
-2.0
</text>
<polyline fill="none" opacity="1" stroke="#000000" stroke-width="1" points="44,349 49,349 "/>
<text x="40" y="293" dy="0.5ex" text-anchor="end" font-family="sans-serif" font-size="12.903225806451614" opacity="1" fill="#000000">
-1.0
</text>
<polyline fill="none" opacity="1" stroke="#000000" stroke-width="1" points="44,293 49,293 "/>
<text x="40" y="236" dy="0.5ex" text-anchor="end" font-family="sans-serif" font-size="12.903225806451614" opacity="1" fill="#000000">
0.0
</text>
<polyline fill="none" opacity="1" stroke="#000000" stroke-width="1" points="44,236 49,236 "/>
<text x="40" y="180" dy="0.5ex" text-anchor="end" font-family="sans-serif" font-size="12.903225806451614" opacity="1" fill="#000000">
1.0
</text>
<polyline fill="none" opacity="1" stroke="#000000" stroke-width="1" points="44,180 49,180 "/>
<text x="40" y="123" dy="0.5ex" text-anchor="end" font-family="sans-serif" font-size="12.903225806451614" opacity="1" fill="#000000">
2.0
</text>
<polyline fill="none" opacity="1" stroke="#000000" stroke-width="1" points="44,123 49,123 "/>
<text x="40" y="67" dy="0.5ex" text-anchor="end" font-family="sans-serif" font-size="12.903225806451614" opacity="1" fill="#000000">
3.0
</text>
<polyline fill="none" opacity="1" stroke="#000000" stroke-width="1" points="44,67 49,67 "/>
<text x="40" y="10" dy="0.5ex" text-anchor="end" font-family="sans-serif" font-size="12.903225806451614" opacity="1" fill="#000000">
4.0
</text>
<polyline fill="none" opacity="1" stroke="#000000" stroke-width="1" points="44,10 49,10 "/>
<polyline fill="none" opacity="1" stroke="#000000" stroke-width="1" points="50,350 589,350 "/>
<text x="50" y="360" dy="0.76em" text-anchor="middle" font-family="sans-serif" font-size="12.903225806451614" opacity="1" fill="#000000">
-3.0
</text>
<polyline fill="none" opacity="1" stroke="#000000" stroke-width="1" points="50,350 50,355 "/>
<text x="139" y="360" dy="0.76em" text-anchor="middle" font-family="sans-serif" font-size="12.903225806451614" opacity="1" fill="#000000">
-2.0
</text>
<polyline fill="none" opacity="1" stroke="#000000" stroke-width="1" points="139,350 139,355 "/>
<text x="229" y="360" dy="0.76em" text-anchor="middle" font-family="sans-serif" font-size="12.903225806451614" opacity="1" fill="#000000">
-1.0
</text>
<polyline fill="none" opacity="1" stroke="#000000" stroke-width="1" points="229,350 229,355 "/>
<text x="319" y="360" dy="0.76em" text-anchor="middle" font-family="sans-serif" font-size="12.903225806451614" opacity="1" fill="#000000">
0.0
</text>
<polyline fill="none" opacity="1" stroke="#000000" stroke-width="1" points="319,350 319,355 "/>
<text x="409" y="360" dy="0.76em" text-anchor="middle" font-family="sans-serif" font-size="12.903225806451614" opacity="1" fill="#000000">
1.0
</text>
<polyline fill="none" opacity="1" stroke="#000000" stroke-width="1" points="409,350 409,355 "/>
<text x="499" y="360" dy="0.76em" text-anchor="middle" font-family="sans-serif" font-size="12.903225806451614" opacity="1" fill="#000000">
2.0
</text>
<polyline fill="none" opacity="1" stroke="#000000" stroke-width="1" points="499,350 499,355 "/>
<text x="589" y="360" dy="0.76em" text-anchor="middle" font-family="sans-serif" font-size="12.903225806451614" opacity="1" fill="#000000">
3.0
</text>
<polyline fill="none" opacity="1" stroke="#000000" stroke-width="1" points="589,350 589,355 "/>
<polyline fill="none" opacity="1" stroke="#0000FF" stroke-width="1" points="139,237 140,237 140,237 140,237 140,237 140,237 140,237 140,237 140,237 140,237 140,237 140,237 141,237 141,237 141,237 141,237 141,237 141,237 141,238 141,238 141,238 141,238 141,238 141,238 142,238 142,238 142,238 142,238 142,238 142,238 142,238 142,238 142,238 142,238 142,238 143,238 143,238 143,238 143,238 143,239 143,239 143,239 143,239 143,239 143,239 143,239 144,239 144,239 144,239 144,239 144,239 144,239 144,239 144,239 144,239 144,239 144,239 145,239 145,239 145,239 145,239 145,239 145,239 145,239 145,240 145,240 145,240 145,240 146,240 146,240 146,240 146,240 146,240 146,240 146,240 146,240 146,240 146,240 146,240 147,240 147,240 147,240 147,240 147,240 147,240 147,240 147,240 147,240 147,240 147,240 148,240 148,240 148,240 148,240 148,241 148,241 148,241 148,241 148,241 148,241 148,241 148,241 149,241 149,241 149,241 149,241 149,241 149,241 149,241 149,241 149,241 149,241 149,241 150,241 150,241 150,241 150,241 150,241 150,241 150,241 150,241 150,241 150,241 150,241 151,241 151,241 151,241 151,241 151,241 151,241 151,241 151,241 151,241 151,241 151,241 152,241 152,241 152,241 152,242 152,242 152,242 152,242 152,242 152,242 152,242 152,242 153,242 153,242 153,242 153,242 153,242 153,242 153,242 153,242 153,242 153,242 153,242 154,242 154,242 154,242 154,242 154,242 154,242 154,242 154,242 154,242 154,242 154,242 155,242 155,242 155,242 155,242 155,242 155,242 155,242 155,242 155,242 155,242 155,242 156,242 156,242 156,242 156,242 156,242 156,242 156,242 156,242 156,242 156,242 156,242 156,242 157,242 157,242 157,242 157,242 157,242 157,242 157,242 157,242 157,242 157,242 157,242 158,242 158,242 158,242 158,242 158,242 158,242 158,242 158,242 158,242 158,242 158,242 159,242 159,242 159,242 159,242 159,242 159,242 159,242 159,242 159,242 159,242 159,242 160,242 160,242 160,242 160,242 160,242 160,242 160,242 160,242 160,242 160,242 160,242 161,242 161,242 161,242 161,242 161,242 161,242 161,242 161,242 161,242 161,242 161,242 162,242 162,242 162,242 162,242 162,242 162,242 162,242 162,242 162,242 162,242 162,242 163,242 163,242 163,242 163,242 163,242 163,242 163,242 163,241 163,241 163,241 163,241 163,241 164,241 164,241 164,241 164,241 164,241 164,241 164,241 164,241 164,241 164,241 164,241 165,241 165,241 165,241 165,241 165,241 165,241 165,241 165,241 165,241 165,241 165,241 166,241 166,241 166,241 166,241 166,241 166,241 166,241 166,241 166,241 166,241 166,241 167,241 167,241 167,241 167,241 167,241 167,241 167,241 167,241 167,240 167,240 167,240 168,240 168,240 168,240 168,240 168,240 168,240 168,240 168,240 168,240 168,240 168,240 169,240 169,240 169,240 169,240 169,240 169,240 169,240 169,240 169,240 169,240 169,240 170,240 170,240 170,240 170,240 170,240 170,240 170,240 170,240 170,239 170,239 170,239 171,239 171,239 171,239 171,239 171,239 171,239 171,239 171,239 171,239 171,239 171,239 171,239 172,239 172,239 172,239 172,239 172,239 172,239 172,239 172,239 172,239 172,239 172,239 173,239 173,238 173,238 173,238 173,238 173,238 173,238 173,238 173,238 173,238 173,238 174,238 174,238 174,238 174,238 174,238 174,238 174,238 174,238 174,238 174,238 174,238 175,238 175,238 175,237 175,237 175,237 175,237 175,237 175,237 175,237 175,237 175,237 176,237 176,237 176,237 176,237 176,237 176,237 176,237 176,237 176,237 176,237 176,237 177,237 177,236 177,236 177,236 177,236 177,236 177,236 177,236 177,236 177,236 177,236 178,236 178,236 178,236 178,236 178,236 178,236 178,236 178,236 178,236 178,236 178,235 179,235 179,235 179,235 179,235 179,235 179,235 179,235 179,235 179,235 179,235 179,235 179,235 180,235 180,235 180,235 180,235 180,235 180,234 180,234 180,234 180,234 180,234 180,234 181,234 181,234 181,234 181,234 181,234 181,234 181,234 181,234 181,234 181,234 181,234 182,233 182,233 182,233 182,233 182,233 182,233 182,233 182,233 182,233 182,233 182,233 183,233 183,233 183,233 183,233 183,233 183,232 183,232 183,232 183,232 183,232 183,232 184,232 184,232 184,232 184,232 184,232 184,232 184,232 184,232 184,232 184,231 184,231 185,231 185,231 185,231 185,231 185,231 185,231 185,231 185,231 185,231 185,231 185,231 186,231 186,231 186,230 186,230 186,230 186,230 186,230 186,230 186,230 186,230 186,230 186,230 187,230 187,230 187,230 187,230 187,229 187,229 187,229 187,229 187,229 187,229 187,229 188,229 188,229 188,229 188,229 188,229 188,229 188,229 188,228 188,228 188,228 188,228 189,228 189,228 189,228 189,228 189,228 189,228 189,228 189,228 189,228 189,227 189,227 190,227 190,227 190,227 190,227 190,227 190,227 190,227 190,227 190,227 190,227 190,227 191,226 191,226 191,226 191,226 191,226 191,226 191,226 191,226 191,226 191,226 191,226 192,226 192,225 192,225 192,225 192,225 192,225 192,225 192,225 192,225 192,225 192,225 193,225 193,225 193,225 193,224 193,224 193,224 193,224 193,224 193,224 193,224 193,224 194,224 194,224 194,224 194,223 194,223 194,223 194,223 194,223 194,223 194,223 194,223 194,223 195,223 195,223 195,223 195,222 195,222 195,222 195,222 195,222 195,222 195,222 195,222 196,222 196,222 196,222 196,222 196,221 196,221 196,221 196,221 196,221 196,221 196,221 197,221 197,221 197,221 197,221 197,220 197,220 197,220 197,220 197,220 197,220 197,220 198,220 198,220 198,220 198,220 198,219 198,219 198,219 198,219 198,219 198,219 198,219 199,219 199,219 199,219 199,218 199,218 199,218 199,218 199,218 199,218 199,218 199,218 200,218 200,218 200,218 200,217 200,217 200,217 200,217 200,217 200,217 200,217 200,217 201,217 201,217 201,217 201,216 201,216 201,216 201,216 201,216 201,216 201,216 201,216 201,216 202,216 202,215 202,215 202,215 202,215 202,215 202,215 202,215 202,215 202,215 202,215 203,214 203,214 203,214 203,214 203,214 203,214 203,214 203,214 203,214 203,214 203,213 204,213 204,213 204,213 204,213 204,213 204,213 204,213 204,213 204,213 204,212 204,212 205,212 205,212 205,212 205,212 205,212 205,212 205,212 205,212 205,211 205,211 205,211 206,211 206,211 206,211 206,211 206,211 206,211 206,210 206,210 206,210 206,210 206,210 207,210 207,210 207,210 207,210 207,210 207,209 207,209 207,209 207,209 207,209 207,209 208,209 208,209 208,209 208,208 208,208 208,208 208,208 208,208 208,208 208,208 208,208 209,208 209,207 209,207 209,207 209,207 209,207 209,207 209,207 209,207 209,207 209,207 209,206 210,206 210,206 210,206 210,206 210,206 210,206 210,206 210,206 210,205 210,205 210,205 211,205 211,205 211,205 211,205 211,205 211,205 211,204 211,204 211,204 211,204 211,204 212,204 212,204 212,204 212,204 212,203 212,203 212,203 212,203 212,203 212,203 212,203 213,203 213,202 213,202 213,202 213,202 213,202 213,202 213,202 213,202 213,202 213,201 214,201 214,201 214,201 214,201 214,201 214,201 214,201 214,201 214,200 214,200 214,200 215,200 215,200 215,200 215,200 215,200 215,200 215,199 215,199 215,199 215,199 215,199 216,199 216,199 216,199 216,198 216,198 216,198 216,198 216,198 216,198 216,198 216,198 217,198 217,197 217,197 217,197 217,197 217,197 217,197 217,197 217,197 217,196 217,196 217,196 218,196 218,196 218,196 218,196 218,196 218,196 218,195 218,195 218,195 218,195 218,195 219,195 219,195 219,195 219,194 219,194 219,194 219,194 219,194 219,194 219,194 219,194 220,193 220,193 220,193 220,193 220,193 220,193 220,193 220,193 220,192 220,192 220,192 221,192 221,192 221,192 221,192 221,192 221,192 221,191 221,191 221,191 221,191 221,191 222,191 222,191 222,191 222,190 222,190 222,190 222,190 222,190 222,190 222,190 222,190 223,189 223,189 223,189 223,189 223,189 223,189 223,189 223,189 223,188 223,188 223,188 224,188 224,188 224,188 224,188 224,188 224,187 224,187 224,187 224,187 224,187 224,187 224,187 225,187 225,186 225,186 225,186 225,186 225,186 225,186 225,186 225,186 225,185 225,185 226,185 226,185 226,185 226,185 226,185 226,184 226,184 226,184 226,184 226,184 226,184 227,184 227,184 227,183 227,183 227,183 227,183 227,183 227,183 227,183 227,183 227,182 228,182 228,182 228,182 228,182 228,182 228,182 228,182 228,181 228,181 228,181 228,181 229,181 229,181 229,181 229,181 229,180 229,180 229,180 229,180 229,180 229,180 229,180 230,179 230,179 230,179 230,179 230,179 230,179 230,178 230,178 230,178 230,178 230,178 231,178 231,177 231,177 231,177 231,177 231,177 231,176 231,176 231,176 231,176 231,175 232,175 232,175 232,175 232,174 232,174 232,174 232,174 232,173 232,173 232,173 232,173 232,172 233,172 233,172 233,171 233,171 233,171 233,171 233,170 233,170 233,170 233,169 233,169 234,169 234,169 234,168 234,168 234,168 234,167 234,167 234,167 234,166 234,166 234,166 235,165 235,165 235,165 235,164 235,164 235,164 235,163 235,163 235,163 235,162 235,162 236,162 236,161 236,161 236,161 236,160 236,160 236,159 236,159 236,159 236,158 236,158 237,158 237,157 237,157 237,157 237,156 237,156 237,156 237,155 237,155 237,154 237,154 238,154 238,153 238,153 238,153 238,152 238,152 238,152 238,151 238,151 238,150 238,150 239,150 239,149 239,149 239,149 239,148 239,148 239,148 239,147 239,147 239,146 239,146 239,146 240,145 240,145 240,145 240,144 240,144 240,144 240,143 240,143 240,143 240,142 240,142 241,142 241,141 241,141 241,140 241,140 241,140 241,139 241,139 241,139 241,138 241,138 242,138 242,138 242,137 242,137 242,137 242,136 242,136 242,136 242,135 242,135 242,135 243,134 243,134 243,134 243,134 243,133 243,133 243,133 243,132 243,132 243,132 243,132 244,131 244,131 244,131 244,130 244,130 244,130 244,130 244,129 244,129 244,129 244,129 245,128 245,128 245,128 245,128 245,128 245,127 245,127 245,127 245,127 245,127 245,126 246,126 246,126 246,126 246,126 246,125 246,125 246,125 246,125 246,125 246,125 246,125 247,124 247,124 247,124 247,124 247,124 247,124 247,124 247,123 247,123 247,123 247,123 247,123 248,123 248,123 248,123 248,123 248,123 248,123 248,122 248,122 248,122 248,122 248,122 249,122 249,122 249,122 249,122 249,122 249,122 249,122 249,122 249,121 249,121 249,121 250,121 250,121 250,121 250,121 250,121 250,121 250,121 250,121 250,121 250,121 250,121 251,121 251,121 251,121 251,121 251,121 251,121 251,120 251,120 251,120 251,120 251,120 252,120 252,120 252,120 252,120 252,120 252,120 252,120 252,120 252,120 252,120 252,120 253,120 253,120 253,120 253,120 253,120 253,120 253,120 253,120 253,120 253,120 253,120 254,120 254,120 254,120 254,120 254,120 254,120 254,120 254,120 254,120 254,120 254,120 255,120 255,120 255,120 255,120 255,120 255,120 255,121 255,121 255,121 255,121 255,121 255,121 256,121 256,121 256,121 256,121 256,121 256,121 256,121 256,121 256,121 256,121 256,121 257,121 257,121 257,121 257,121 257,122 257,122 257,122 257,122 257,122 257,122 257,122 258,122 258,122 258,122 258,122 258,122 258,122 258,123 258,123 258,123 258,123 258,123 259,123 259,123 259,123 259,123 259,123 259,123 259,123 259,124 259,124 259,124 259,124 260,124 260,124 260,124 260,124 260,124 260,124 260,125 260,125 260,125 260,125 260,125 261,125 261,125 261,125 261,126 261,126 261,126 261,126 261,126 261,126 261,126 261,126 262,127 262,127 262,127 262,127 262,127 262,127 262,127 262,127 262,128 262,128 262,128 262,128 263,128 263,128 263,128 263,129 263,129 263,129 263,129 263,129 263,129 263,129 263,130 264,130 264,130 264,130 264,130 264,130 264,131 264,131 264,131 264,131 264,131 264,131 265,132 265,132 265,132 265,132 265,132 265,132 265,133 265,133 265,133 265,133 265,133 266,133 266,134 266,134 266,134 266,134 266,134 266,135 266,135 266,135 266,135 266,135 267,136 267,136 267,136 267,136 267,136 267,137 267,137 267,137 267,137 267,137 267,138 268,138 268,138 268,138 268,138 268,139 268,139 268,139 268,139 268,139 268,140 268,140 269,140 269,140 269,140 269,141 269,141 269,141 269,141 269,141 269,142 269,142 269,142 270,142 270,143 270,143 270,143 270,143 270,144 270,144 270,144 270,144 270,144 270,145 270,145 271,145 271,145 271,146 271,146 271,146 271,146 271,147 271,147 271,147 271,147 271,147 272,148 272,148 272,148 272,148 272,149 272,149 272,149 272,149 272,150 272,150 272,150 273,150 273,151 273,151 273,151 273,151 273,152 273,152 273,152 273,152 273,153 273,153 274,153 274,154 274,154 274,154 274,154 274,155 274,155 274,155 274,155 274,156 274,156 275,156 275,156 275,157 275,157 275,157 275,158 275,158 275,158 275,158 275,159 275,159 276,159 276,159 276,160 276,160 276,160 276,161 276,161 276,161 276,161 276,162 276,162 277,162 277,163 277,163 277,163 277,163 277,164 277,164 277,164 277,165 277,165 277,165 277,165 278,166 278,166 278,166 278,167 278,167 278,167 278,167 278,168 278,168 278,168 278,169 279,169 279,169 279,169 279,170 279,170 279,170 279,171 279,171 279,171 279,172 279,172 280,172 280,172 280,173 280,173 280,173 280,174 280,174 280,174 280,175 280,175 280,175 281,176 281,176 281,176 281,176 281,177 281,177 281,177 281,178 281,178 281,178 281,179 282,179 282,179 282,180 282,180 282,180 282,181 282,181 282,181 282,181 282,182 282,182 283,182 283,183 283,183 283,183 283,184 283,184 283,184 283,185 283,185 283,185 283,186 284,186 284,186 284,187 284,187 284,187 284,188 284,188 284,188 284,189 284,189 284,189 285,190 285,190 285,190 285,191 285,191 285,191 285,191 285,192 285,192 285,192 285,193 285,193 286,193 286,194 286,194 286,194 286,195 286,195 286,195 286,196 286,196 286,196 286,197 287,197 287,197 287,198 287,198 287,198 287,199 287,199 287,199 287,200 287,200 287,200 288,201 288,201 288,201 288,202 288,202 288,202 288,203 288,203 288,203 288,204 288,204 289,205 289,205 289,205 289,206 289,206 289,206 289,207 289,207 289,207 289,208 289,208 290,208 290,209 290,209 290,209 290,210 290,210 290,210 290,211 290,211 290,211 290,212 291,212 291,212 291,213 291,213 291,213 291,214 291,214 291,214 291,215 291,215 291,215 292,216 292,216 292,216 292,217 292,217 292,217 292,218 292,218 292,218 292,219 292,219 293,220 293,220 293,220 293,221 293,221 293,221 293,222 293,222 293,222 293,223 293,223 293,223 294,224 294,224 294,224 294,225 294,225 294,225 294,226 294,226 294,226 294,227 294,227 295,227 295,228 295,228 295,228 295,229 295,229 295,229 295,230 295,230 295,230 295,231 296,231 296,232 296,232 296,232 296,233 296,233 296,233 296,234 296,234 296,234 296,235 297,235 297,235 297,236 297,236 297,236 297,237 297,237 297,237 297,238 297,238 297,238 298,239 298,239 298,239 298,240 298,240 298,240 298,241 298,241 298,241 298,242 298,242 299,242 299,243 299,243 299,243 299,244 299,244 299,244 299,245 299,245 299,245 299,246 300,246 300,246 300,247 300,247 300,247 300,248 300,248 300,248 300,249 300,249 300,249 300,250 301,250 301,250 301,251 301,251 301,251 301,252 301,252 301,252 301,253 301,253 301,253 302,254 302,254 302,254 302,255 302,255 302,255 302,256 302,256 302,256 302,257 302,257 303,257 303,258 303,258 303,258 303,259 303,259 303,259 303,260 303,260 303,260 303,261 304,261 304,261 304,262 304,262 304,262 304,263 304,263 304,263 304,264 304,264 304,264 305,264 305,265 305,265 305,265 305,266 305,266 305,266 305,267 305,267 305,267 305,268 306,268 306,268 306,269 306,269 306,269 306,269 306,270 306,270 306,270 306,271 306,271 307,271 307,272 307,272 307,272 307,273 307,273 307,273 307,273 307,274 307,274 307,274 308,275 308,275 308,275 308,276 308,276 308,276 308,277 308,277 308,277 308,277 308,278 308,278 309,278 309,279 309,279 309,279 309,279 309,280 309,280 309,280 309,281 309,281 309,281 310,282 310,282 310,282 310,282 310,283 310,283 310,283 310,284 310,284 310,284 310,284 311,285 311,285 311,285 311,286 311,286 311,286 311,286 311,287 311,287 311,287 311,287 312,288 312,288 312,288 312,289 312,289 312,289 312,289 312,290 312,290 312,290 312,290 313,291 313,291 313,291 313,292 313,292 313,292 313,292 313,293 313,293 313,293 313,293 314,294 314,294 314,294 314,294 314,295 314,295 314,295 314,295 314,296 314,296 314,296 315,296 315,297 315,297 315,297 315,297 315,298 315,298 315,298 315,298 315,299 315,299 315,299 316,299 316,300 316,300 316,300 316,300 316,301 316,301 316,301 316,301 316,302 316,302 317,302 317,302 317,302 317,303 317,303 317,303 317,303 317,304 317,304 317,304 317,304 318,305 318,305 318,305 318,305 318,305 318,306 318,306 318,306 318,306 318,306 318,307 319,307 319,307 319,307 319,308 319,308 319,308 319,308 319,308 319,309 319,309 319,309 320,309 320,309 320,310 320,310 320,310 320,310 320,310 320,311 320,311 320,311 320,311 321,311 321,312 321,312 321,312 321,312 321,312 321,312 321,313 321,313 321,313 321,313 322,313 322,314 322,314 322,314 322,314 322,314 322,314 322,315 322,315 322,315 322,315 323,315 323,315 323,316 323,316 323,316 323,316 323,316 323,316 323,317 323,317 323,317 323,317 324,317 324,317 324,318 324,318 324,318 324,318 324,318 324,318 324,318 324,319 324,319 325,319 325,319 325,319 325,319 325,319 325,320 325,320 325,320 325,320 325,320 325,320 326,320 326,320 326,321 326,321 326,321 326,321 326,321 326,321 326,321 326,321 326,322 327,322 327,322 327,322 327,322 327,322 327,322 327,322 327,322 327,323 327,323 327,323 328,323 328,323 328,323 328,323 328,323 328,323 328,323 328,324 328,324 328,324 328,324 329,324 329,324 329,324 329,324 329,324 329,324 329,324 329,325 329,325 329,325 329,325 330,325 330,325 330,325 330,325 330,325 330,325 330,325 330,325 330,325 330,325 330,325 330,326 331,326 331,326 331,326 331,326 331,326 331,326 331,326 331,326 331,326 331,326 331,326 332,326 332,326 332,326 332,326 332,326 332,326 332,326 332,326 332,326 332,326 332,326 333,326 333,327 333,327 333,327 333,327 333,327 333,327 333,327 333,327 333,327 333,327 334,327 334,327 334,327 334,327 334,327 334,327 334,327 334,327 334,327 334,327 334,327 335,327 335,327 335,327 335,327 335,327 335,327 335,327 335,327 335,327 335,327 335,327 336,326 336,326 336,326 336,326 336,326 336,326 336,326 336,326 336,326 336,326 336,326 337,326 337,326 337,326 337,326 337,326 337,326 337,326 337,326 337,326 337,326 337,326 338,326 338,325 338,325 338,325 338,325 338,325 338,325 338,325 338,325 338,325 338,325 338,325 339,325 339,325 339,325 339,324 339,324 339,324 339,324 339,324 339,324 339,324 339,324 340,324 340,324 340,324 340,323 340,323 340,323 340,323 340,323 340,323 340,323 340,323 341,323 341,322 341,322 341,322 341,322 341,322 341,322 341,322 341,322 341,321 341,321 342,321 342,321 342,321 342,321 342,321 342,320 342,320 342,320 342,320 342,320 342,320 343,320 343,319 343,319 343,319 343,319 343,319 343,319 343,319 343,318 343,318 343,318 344,318 344,318 344,318 344,318 344,317 344,317 344,317 344,317 344,317 344,317 344,317 345,316 345,316 345,316 345,316 345,316 345,316 345,315 345,315 345,315 345,315 345,315 346,315 346,315 346,314 346,314 346,314 346,314 346,314 346,314 346,313 346,313 346,313 346,313 347,313 347,313 347,312 347,312 347,312 347,312 347,312 347,312 347,312 347,311 347,311 348,311 348,311 348,311 348,311 348,310 348,310 348,310 348,310 348,310 348,310 348,309 349,309 349,309 349,309 349,309 349,309 349,308 349,308 349,308 349,308 349,308 349,307 350,307 350,307 350,307 350,307 350,307 350,306 350,306 350,306 350,306 350,306 350,306 351,305 351,305 351,305 351,305 351,305 351,305 351,304 351,304 351,304 351,304 351,304 352,303 352,303 352,303 352,303 352,303 352,303 352,302 352,302 352,302 352,302 352,302 353,301 353,301 353,301 353,301 353,301 353,301 353,300 353,300 353,300 353,300 353,300 353,299 354,299 354,299 354,299 354,299 354,299 354,298 354,298 354,298 354,298 354,298 354,297 355,297 355,297 355,297 355,297 355,296 355,296 355,296 355,296 355,296 355,296 355,295 356,295 356,295 356,295 356,295 356,294 356,294 356,294 356,294 356,294 356,293 356,293 357,293 357,293 357,293 357,292 357,292 357,292 357,292 357,292 357,291 357,291 357,291 358,291 358,291 358,290 358,290 358,290 358,290 358,290 358,290 358,289 358,289 358,289 359,289 359,289 359,288 359,288 359,288 359,288 359,288 359,287 359,287 359,287 359,287 360,287 360,286 360,286 360,286 360,286 360,286 360,285 360,285 360,285 360,285 360,284 361,284 361,284 361,284 361,284 361,283 361,283 361,283 361,283 361,283 361,282 361,282 361,282 362,282 362,282 362,281 362,281 362,281 362,281 362,281 362,280 362,280 362,280 362,280 363,280 363,279 363,279 363,279 363,279 363,279 363,278 363,278 363,278 363,278 363,277 364,277 364,277 364,277 364,277 364,276 364,276 364,276 364,276 364,276 364,275 364,275 365,275 365,275 365,275 365,274 365,274 365,274 365,274 365,274 365,273 365,273 365,273 366,273 366,272 366,272 366,272 366,272 366,272 366,271 366,271 366,271 366,271 366,271 367,270 367,270 367,270 367,270 367,269 367,269 367,269 367,269 367,269 367,268 367,268 368,268 368,268 368,268 368,267 368,267 368,267 368,267 368,266 368,266 368,266 368,266 368,266 369,265 369,265 369,265 369,265 369,265 369,264 369,264 369,264 369,264 369,263 369,263 370,263 370,263 370,263 370,262 370,262 370,262 370,262 370,262 370,261 370,261 370,261 371,261 371,260 371,260 371,260 371,260 371,260 371,259 371,259 371,259 371,259 371,259 372,258 372,258 372,258 372,258 372,257 372,257 372,257 372,257 372,257 372,256 372,256 373,256 373,256 373,255 373,255 373,255 373,255 373,255 373,254 373,254 373,254 373,254 374,254 374,253 374,253 374,253 374,253 374,252 374,252 374,252 374,252 374,252 374,251 375,251 375,251 375,251 375,250 375,250 375,250 375,250 375,250 375,249 375,249 375,249 376,249 376,249 376,248 376,248 376,248 376,248 376,247 376,247 376,247 376,247 376,247 376,246 377,246 377,246 377,246 377,245 377,245 377,245 377,245 377,245 377,244 377,244 377,244 378,244 378,244 378,243 378,243 378,243 378,243 378,242 378,242 378,242 378,242 378,242 379,241 379,241 379,241 379,241 379,241 379,240 379,240 379,240 379,240 379,239 379,239 380,239 380,239 380,239 380,238 380,238 380,238 380,238 380,238 380,237 380,237 380,237 381,237 381,236 381,236 381,236 381,236 381,236 381,235 381,235 381,235 381,235 381,235 382,234 382,234 382,234 382,234 382,233 382,233 382,233 382,233 382,233 382,232 382,232 383,232 383,232 383,232 383,231 383,231 383,231 383,231 383,230 383,230 383,230 383,230 384,230 384,229 384,229 384,229 384,229 384,229 384,228 384,228 384,228 384,228 384,228 384,227 385,227 385,227 385,227 385,227 385,226 385,226 385,226 385,226 385,225 385,225 385,225 386,225 386,225 386,224 386,224 386,224 386,224 386,224 386,223 386,223 386,223 386,223 387,223 387,222 387,222 387,222 387,222 387,222 387,221 387,221 387,221 387,221 387,221 388,220 388,220 388,220 388,220 388,220 388,219 388,219 388,219 388,219 388,219 388,218 389,218 389,218 389,218 389,218 389,217 389,217 389,217 389,217 389,217 389,216 389,216 390,216 390,216 390,216 390,215 390,215 390,215 390,215 390,215 390,214 390,214 390,214 391,214 391,214 391,213 391,213 391,213 391,213 391,213 391,212 391,212 391,212 391,212 391,212 392,211 392,211 392,211 392,211 392,211 392,210 392,210 392,210 392,210 392,210 392,209 393,209 393,209 393,209 393,209 393,209 393,208 393,208 393,208 393,208 393,208 393,207 394,207 394,207 394,207 394,207 394,206 394,206 394,206 394,206 394,206 394,205 394,205 395,205 395,205 395,205 395,205 395,204 395,204 395,204 395,204 395,204 395,203 395,203 396,203 396,203 396,203 396,203 396,202 396,202 396,202 396,202 396,202 396,201 396,201 397,201 397,201 397,201 397,201 397,200 397,200 397,200 397,200 397,200 397,200 397,199 398,199 398,199 398,199 398,199 398,198 398,198 398,198 398,198 398,198 398,198 398,197 399,197 399,197 399,197 399,197 399,197 399,196 399,196 399,196 399,196 399,196 399,196 399,195 400,195 400,195 400,195 400,195 400,195 400,194 400,194 400,194 400,194 400,194 400,194 401,193 401,193 401,193 401,193 401,193 401,193 401,192 401,192 401,192 401,192 401,192 402,192 402,191 402,191 402,191 402,191 402,191 402,191 402,191 402,190 402,190 402,190 403,190 403,190 403,190 403,189 403,189 403,189 403,189 403,189 403,189 403,188 403,188 404,188 404,188 404,188 404,188 404,188 404,187 404,187 404,187 404,187 404,187 404,187 405,187 405,186 405,186 405,186 405,186 405,186 405,186 405,186 405,185 405,185 405,185 406,185 406,185 406,185 406,185 406,184 406,184 406,184 406,184 406,184 406,184 406,184 406,183 407,183 407,183 407,183 407,183 407,183 407,183 407,182 407,182 407,182 407,182 407,182 408,182 408,182 408,182 408,181 408,181 408,181 408,181 408,181 408,181 408,181 408,181 409,180 409,180 409,180 409,180 409,180 409,180 409,180 409,179 409,179 409,179 409,179 410,179 410,179 410,179 410,179 410,178 410,178 410,178 410,178 410,178 410,178 410,178 411,178 411,177 411,177 411,177 411,177 411,177 411,177 411,177 411,177 411,176 411,176 412,176 412,176 412,176 412,176 412,176 412,176 412,175 412,175 412,175 412,175 412,175 413,175 413,175 413,175 413,174 413,174 413,174 413,174 413,174 413,174 413,174 413,174 414,173 414,173 414,173 414,173 414,173 414,173 414,173 414,173 414,172 414,172 414,172 414,172 415,172 415,172 415,172 415,172 415,171 415,171 415,171 415,171 415,171 415,171 415,171 416,171 416,170 416,170 416,170 416,170 416,170 416,170 416,170 416,170 416,169 416,169 417,169 417,169 417,169 417,169 417,169 417,168 417,168 417,168 417,168 417,168 417,168 418,168 418,168 418,167 418,167 418,167 418,167 418,167 418,167 418,167 418,167 418,166 419,166 419,166 419,166 419,166 419,166 419,166 419,166 419,165 419,165 419,165 419,165 420,165 420,165 420,165 420,165 420,164 420,164 420,164 420,164 420,164 420,164 420,164 421,164 421,163 421,163 421,163 421,163 421,163 421,163 421,163 421,162 421,162 421,162 422,162 422,162 422,162 422,162 422,162 422,161 422,161 422,161 422,161 422,161 422,161 422,161 423,161 423,160 423,160 423,160 423,160 423,160 423,160 423,160 423,160 423,159 423,159 424,159 424,159 424,159 424,159 424,159 424,159 424,158 424,158 424,158 424,158 424,158 425,158 425,158 425,158 425,157 425,157 425,157 425,157 425,157 425,157 425,157 425,157 426,156 426,156 426,156 426,156 426,156 426,156 426,156 426,155 426,155 426,155 426,155 427,155 427,155 427,155 427,155 427,154 427,154 427,154 427,154 427,154 427,154 427,154 428,154 428,153 428,153 428,153 428,153 428,153 428,153 428,153 428,153 428,152 428,152 429,152 429,152 429,152 429,152 429,152 429,152 429,151 429,151 429,151 429,151 429,151 429,151 430,151 430,151 430,150 430,150 430,150 430,150 430,150 430,150 430,150 430,149 430,149 431,149 431,149 431,149 431,149 431,149 431,149 431,148 431,148 431,148 431,148 431,148 432,148 432,148 432,148 432,147 432,147 432,147 432,147 432,147 432,147 432,147 432,147 433,146 433,146 433,146 433,146 433,146 433,146 433,146 433,146 433,145 433,145 433,145 434,145 434,145 434,145 434,145 434,145 434,144 434,144 434,144 434,144 434,144 434,144 435,144 435,144 435,143 435,143 435,143 435,143 435,143 435,143 435,143 435,143 435,142 436,142 436,142 436,142 436,142 436,142 436,142 436,142 436,141 436,141 436,141 436,141 437,141 437,141 437,141 437,140 437,140 437,140 437,140 437,140 437,140 437,140 437,140 437,139 438,139 438,139 438,139 438,139 438,139 438,139 438,139 438,138 438,138 438,138 438,138 439,138 439,138 439,138 439,138 439,137 439,137 439,137 439,137 439,137 439,137 439,137 440,137 440,136 440,136 440,136 440,136 440,136 440,136 440,136 440,136 440,135 440,135 441,135 441,135 441,135 441,135 441,135 441,135 441,134 441,134 441,134 441,134 441,134 442,134 442,134 442,134 442,133 442,133 442,133 442,133 442,133 442,133 442,133 442,133 443,132 443,132 443,132 443,132 443,132 443,132 443,132 443,132 443,131 443,131 443,131 444,131 444,131 444,131 444,131 444,131 444,130 444,130 444,130 444,130 444,130 444,130 444,130 445,130 445,129 445,129 445,129 445,129 445,129 445,129 445,129 445,129 445,129 445,128 446,128 446,128 446,128 446,128 446,128 446,128 446,128 446,127 446,127 446,127 446,127 447,127 447,127 447,127 447,127 447,126 447,126 447,126 447,126 447,126 447,126 447,126 448,126 448,125 448,125 448,125 448,125 448,125 448,125 448,125 448,125 448,124 448,124 449,124 449,124 449,124 449,124 449,124 449,124 449,123 449,123 449,123 449,123 449,123 450,123 450,123 450,123 450,123 450,122 450,122 450,122 450,122 450,122 450,122 450,122 451,122 451,121 451,121 451,121 451,121 451,121 451,121 451,121 451,121 451,120 451,120 452,120 452,120 452,120 452,120 452,120 452,120 452,119 452,119 452,119 452,119 452,119 452,119 453,119 453,119 453,119 453,118 453,118 453,118 453,118 453,118 453,118 453,118 453,118 454,117 454,117 454,117 454,117 454,117 454,117 454,117 454,117 454,117 454,116 454,116 455,116 455,116 455,116 455,116 455,116 455,116 455,115 455,115 455,115 455,115 455,115 456,115 456,115 456,115 456,114 456,114 456,114 456,114 456,114 456,114 456,114 456,114 457,114 457,113 457,113 457,113 457,113 457,113 457,113 457,113 457,113 457,112 457,112 458,112 458,112 458,112 458,112 458,112 458,112 458,112 458,111 458,111 458,111 458,111 459,111 459,111 459,111 459,111 459,111 459,110 459,110 459,110 459,110 459,110 459,110 460,110 460,110 460,109 460,109 460,109 460,109 460,109 460,109 460,109 460,109 460,109 460,108 461,108 461,108 461,108 461,108 461,108 461,108 461,108 461,108 461,107 461,107 461,107 462,107 462,107 462,107 462,107 462,107 462,106 462,106 462,106 462,106 462,106 462,106 463,106 463,106 463,106 463,105 463,105 463,105 463,105 463,105 463,105 463,105 463,105 464,105 464,104 464,104 464,104 464,104 464,104 464,104 464,104 464,104 464,104 464,103 465,103 465,103 465,103 465,103 465,103 465,103 465,103 465,103 465,102 465,102 465,102 466,102 466,102 466,102 466,102 466,102 466,102 466,101 466,101 466,101 466,101 466,101 467,101 467,101 467,101 467,101 467,100 467,100 467,100 467,100 467,100 467,100 467,100 467,100 468,100 468,99 468,99 468,99 468,99 468,99 468,99 468,99 468,99 468,99 468,98 469,98 469,98 469,98 469,98 469,98 469,98 469,98 469,98 469,97 469,97 469,97 470,97 470,97 470,97 470,97 470,97 470,97 470,96 470,96 470,96 470,96 470,96 471,96 471,96 471,96 471,96 471,96 471,95 471,95 471,95 471,95 471,95 471,95 472,95 472,95 472,95 472,94 472,94 472,94 472,94 472,94 472,94 472,94 472,94 473,94 473,94 473,93 473,93 473,93 473,93 473,93 473,93 473,93 473,93 473,93 474,92 474,92 474,92 474,92 474,92 474,92 474,92 474,92 474,92 474,92 474,91 475,91 475,91 475,91 475,91 475,91 475,91 475,91 475,91 475,90 475,90 475,90 475,90 476,90 476,90 476,90 476,90 476,90 476,90 476,89 476,89 476,89 476,89 476,89 477,89 477,89 477,89 477,89 477,89 477,88 477,88 477,88 477,88 477,88 477,88 478,88 478,88 478,88 478,88 478,87 478,87 478,87 478,87 478,87 478,87 478,87 479,87 479,87 479,87 479,86 479,86 479,86 479,86 479,86 479,86 479,86 479,86 480,86 480,86 480,85 480,85 480,85 480,85 480,85 480,85 480,85 480,85 480,85 481,85 481,84 481,84 481,84 481,84 481,84 481,84 481,84 481,84 481,84 481,84 482,84 482,83 482,83 482,83 482,83 482,83 482,83 482,83 482,83 482,83 482,83 482,82 483,82 483,82 483,82 483,82 483,82 483,82 483,82 483,82 483,82 483,81 483,81 484,81 484,81 484,81 484,81 484,81 484,81 484,81 484,81 484,81 484,80 484,80 485,80 485,80 485,80 485,80 485,80 485,80 485,80 485,80 485,80 485,79 485,79 486,79 486,79 486,79 486,79 486,79 486,79 486,79 486,79 486,79 486,78 486,78 487,78 487,78 487,78 487,78 487,78 487,78 487,78 487,78 487,78 487,77 487,77 488,77 488,77 488,77 488,77 488,77 488,77 488,77 488,77 488,77 488,76 488,76 489,76 489,76 489,76 489,76 489,76 489,76 489,76 489,76 489,76 489,75 489,75 490,75 490,75 490,75 490,75 490,75 490,75 490,75 490,75 490,75 490,75 490,74 490,74 491,74 491,74 491,74 491,74 491,74 491,74 491,74 491,74 491,74 491,73 491,73 492,73 492,73 492,73 492,73 492,73 492,73 492,73 492,73 492,73 492,73 492,72 493,72 493,72 493,72 493,72 493,72 493,72 493,72 493,72 493,72 493,72 493,72 494,71 494,71 494,71 494,71 494,71 494,71 494,71 494,71 494,71 494,71 494,71 495,71 495,71 495,70 495,70 495,70 495,70 495,70 495,70 495,70 495,70 495,70 496,70 496,70 496,70 496,69 496,69 496,69 496,69 496,69 496,69 496,69 496,69 497,69 497,69 497,69 497,69 497,69 497,68 497,68 497,68 497,68 497,68 497,68 497,68 498,68 498,68 498,68 498,68 498,68 498,68 498,67 498,67 498,67 498,67 498,67 499,67 499,67 "/>
<circle cx="139" cy="236" r="5" opacity="1" fill="#000000" stroke="none" stroke-width="1"/>
<circle cx="229" cy="180" r="5" opacity="1" fill="#000000" stroke="none" stroke-width="1"/>
<circle cx="247" cy="123" r="5" opacity="1" fill="#000000" stroke="none" stroke-width="1"/>
<circle cx="341" cy="321" r="5" opacity="1" fill="#000000" stroke="none" stroke-width="1"/>
<circle cx="409" cy="180" r="5" opacity="1" fill="#000000" stroke="none" stroke-width="1"/>
<circle cx="499" cy="67" r="5" opacity="1" fill="#000000" stroke="none" stroke-width="1"/>
<rect x="55" y="15" width="171" height="57" opacity="0.8" fill="#FFFFFF" stroke="none"/>
<rect x="55" y="15" width="171" height="57" opacity="1" fill="none" stroke="#000000"/>
<text x="95" y="25" dy="0.76em" text-anchor="start" font-family="sans-serif" font-size="14.516129032258064" opacity="1" fill="#000000">
spline interpolation
</text>
<text x="95" y="48" dy="0.76em" text-anchor="start" font-family="sans-serif" font-size="14.516129032258064" opacity="1" fill="#000000">
original data
</text>
<polyline fill="none" opacity="1" stroke="#0000FF" stroke-width="1" points="65,32 85,32 "/>
<circle cx="75" cy="55" r="5" opacity="1" fill="#000000" stroke="none" stroke-width="1"/>
</svg>
